<svg width="20" height="20" viewBox="0 0 20 20" fill="none" xmlns="http://www.w3.org/2000/svg">
<mask id="mask0_729_4949" style="mask-type:alpha" maskUnits="userSpaceOnUse" x="0" y="0" width="20" height="20">
<rect width="20" height="20" fill="#D9D9D9"/>
</mask>
<g mask="url(#mask0_729_4949)">
<path d="M5.82812 17.5C5.36979 17.5 4.97743 17.3368 4.65104 17.0104C4.32465 16.684 4.16146 16.2917 4.16146 15.8333V5C3.92535 5 3.72743 4.92014 3.56771 4.76042C3.40799 4.60069 3.32812 4.40278 3.32812 4.16667C3.32812 3.93056 3.40799 3.73264 3.56771 3.57292C3.72743 3.41319 3.92535 3.33333 4.16146 3.33333H7.49479C7.49479 3.09722 7.57465 2.89931 7.73438 2.73958C7.8941 2.57986 8.09201 2.5 8.32812 2.5H11.6615C11.8976 2.5 12.0955 2.57986 12.2552 2.73958C12.4149 2.89931 12.4948 3.09722 12.4948 3.33333H15.8281C16.0642 3.33333 16.2622 3.41319 16.4219 3.57292C16.5816 3.73264 16.6615 3.93056 16.6615 4.16667C16.6615 4.40278 16.5816 4.60069 16.4219 4.76042C16.2622 4.92014 16.0642 5 15.8281 5V15.8333C15.8281 16.2917 15.6649 16.684 15.3385 17.0104C15.0122 17.3368 14.6198 17.5 14.1615 17.5H5.82812ZM7.49479 13.3333C7.49479 13.5694 7.57465 13.7674 7.73438 13.9271C7.8941 14.0868 8.09201 14.1667 8.32812 14.1667C8.56424 14.1667 8.76215 14.0868 8.92188 13.9271C9.0816 13.7674 9.16146 13.5694 9.16146 13.3333V7.5C9.16146 7.26389 9.0816 7.06597 8.92188 6.90625C8.76215 6.74653 8.56424 6.66667 8.32812 6.66667C8.09201 6.66667 7.8941 6.74653 7.73438 6.90625C7.57465 7.06597 7.49479 7.26389 7.49479 7.5V13.3333ZM10.8281 13.3333C10.8281 13.5694 10.908 13.7674 11.0677 13.9271C11.2274 14.0868 11.4253 14.1667 11.6615 14.1667C11.8976 14.1667 12.0955 14.0868 12.2552 13.9271C12.4149 13.7674 12.4948 13.5694 12.4948 13.3333V7.5C12.4948 7.26389 12.4149 7.06597 12.2552 6.90625C12.0955 6.74653 11.8976 6.66667 11.6615 6.66667C11.4253 6.66667 11.2274 6.74653 11.0677 6.90625C10.908 7.06597 10.8281 7.26389 10.8281 7.5V13.3333Z" fill="#D9BFBF"/>
</g>
</svg>
