<svg width="34" height="24" viewBox="0 0 34 24" fill="none" xmlns="http://www.w3.org/2000/svg">
<path d="M28.25 6H24.5V3C24.5 1.35 23.15 0 21.5 0H3.5C1.85 0 0.5 1.35 0.5 3V16.5C0.5 18.15 1.85 19.5 3.5 19.5C3.5 21.99 5.51 24 8 24C10.49 24 12.5 21.99 12.5 19.5H21.5C21.5 21.99 23.51 24 26 24C28.49 24 30.5 21.99 30.5 19.5H32C32.825 19.5 33.5 18.825 33.5 18V13.005C33.5 12.36 33.29 11.73 32.9 11.205L29.45 6.6C29.165 6.225 28.715 6 28.25 6ZM8 21C7.175 21 6.5 20.325 6.5 19.5C6.5 18.675 7.175 18 8 18C8.825 18 9.5 18.675 9.5 19.5C9.5 20.325 8.825 21 8 21ZM28.25 8.25L31.19 12H24.5V8.25H28.25ZM26 21C25.175 21 24.5 20.325 24.5 19.5C24.5 18.675 25.175 18 26 18C26.825 18 27.5 18.675 27.5 19.5C27.5 20.325 26.825 21 26 21Z" fill="#333366"/>
</svg>
